<svg preserveAspectRatio="xMidYMid meet" data-bbox="39.973 20.177 1420.127 1460.923" viewBox="0 0 1500 1501" xmlns="http://www.w3.org/2000/svg" data-type="ugc" role="presentation" aria-hidden="true" aria-label="">
    <g style="isolation:isolate">
        <path d="M472.9 304.2c33-3.6 88.5-.3 109.8 28.4s6.8 31-14.9 42.4c-28.2 14.9-103.1 35.8-134.5 36.6-4 .1-30.1-2.5-32.1-3.4-8.7-4.1-8-23-7.2-31.3 3.6-38.6 42.1-68.8 78.9-72.8Z" fill="#ffffff"></path>
        <path d="M1171.3 31.4c1.6 2.1-36.1 28.1-39.8 31.2-31.8 27.6-63.3 70.2-82.6 107.6-4.7 9.1-25.8 52.6-24 59.3 1.5 5.6 81.9 56.7 94.6 66.8 49.8 39.6 84.9 83.2 117.8 137.4 6.8 11.2 22.1 33.2 25.4 44.5 1.4 4.9-1.2 2.9-3.4 3.5-5.8 1.7-13.1 2-18.1 6l76.9 82c25 33.5 52.7 65.6 74.2 101.5 46.4 77.7 63.3 176 67.8 265.6-2.5 2.9-13.6-12.3-15.4-14.6-62.6-80.5-116.7-134.7-198.9-195.9-18.3-13.6-38.2-28.1-58.8-37.5 11 21.1 32.8 35 48.2 52.9 7.7 8.9 26 30.8 25.2 41.9-.6 7.1-14.9 40-18.8 48.9-46 105.3-136.6 204.3-234.6 263.7-84.8 51.4-174.5 87-269.5 115-36.3 121.9-121.8 232.8-247.1 269.9-.9-3.7 1.5-5.2 2.9-7.9 27.2-52 68.4-94.7 80.2-155.7 7.1-36.9 6.5-53.6-31-68-44.9-17.2-121.3-2.2-169.5 2.2-2.3.2-7.5 2.2-5.4-3 2.5-6 51.5-44.4 60.3-50.4 62-41.9 130.1-48.7 203.3-47.3 15.1.3 28.6 7.9 43.2-2.3 31.2-21.6 66.6-91.3 77-127.6 32.4-113.6-40.9-239.5-161.5-250.1-70.4-6.2-251.3 57.5-315.4 93.2l-70.6 46.2 23-122.8c-3.3-6.2-27.3-10.5-34.9-13.3-55-20.7-109.7-44.3-151.2-87.1-5.2-102.3 13.8-205.8 65.9-294.3C189.3 252.6 290 199.2 446.5 164.6c63.3-14 144.3-28.7 208.7-32 65-3.3 102 9.8 162.2-25.5 24.3-14.3 39.3-35.9 61.1-49.6 63.5-40 182.6-41.9 255.3-32.9 12.6 1.6 25.3 4.1 37.6 6.9ZM472.9 304.2c-36.7 4-75.2 34.1-78.9 72.8-.8 8.2-1.5 27.2 7.2 31.3 2 .9 28.1 3.5 32.1 3.4 31.4-.9 106.2-21.7 134.5-36.6 21.7-11.4 31.4-20.2 14.9-42.4s-76.7-32-109.8-28.4ZM167.8 599.6c-.8.5-4.5-.1-6.9 1.4-9.1 9.6-72.3 34.7-74.5 41.1-12.2 35.4 49.8 81 78.4 91.8 80.9 30.8 225.7 25.1 312 14.7 127.2-15.4 175.1-69.7 261.4-153.8.3 2.3-.5 5.2 0 7.2-12.4 20.7-23.5 42.3-38.6 61.3-17.3 21.9-40.5 38.1-57.6 60 67.1 51.6 156.9 106.5 163.6 200 6.3 87.4-22.7 164.4-69.9 236.1 7.3 3.9 15.9-4.2 21.6-8.4 7.7-.7 15.6-4.4 22.5-7.6 84.9-38.2 184.4-87.9 248.2-156.2 29.1-31.1 77-88.2 80.7-131.2 14.9-173-182.7-193.2-309.4-205.9-7.5-.8-15.3.4-22.8 0-2-8.4 4.2-7 8.3-12.1 25.8-32 33.1-53.3 35.1-94.9 10.6-213.7-314.1-100.7-425.5-64.6-63.1 20.5-105.4 39-161.6 74.3-22.7 14.3-44.3 33.6-65.2 46.8Z" fill="#020202"></path>
        <path d="M167.8 599.6c20.8-13.2 42.5-32.5 65.2-46.8 56.2-35.3 98.5-53.8 161.6-74.3 111.4-36.1 436-149.2 425.5 64.6-2.1 41.6-9.4 62.9-35.1 94.9-4.1 5.1-10.3 3.7-8.3 12.1 7.5.5 15.3-.7 22.8 0 126.7 12.7 324.2 32.9 309.4 205.9-3.7 43-51.6 100.1-80.7 131.2-63.8 68.3-163.3 117.9-248.2 156.2-7 3.1-14.9 6.9-22.5 7.6 50.5-37.4 112.5-136.6 120-199 7.5-61.5-5.4-99.3-36.3-150.9-27.4-45.9-63.3-85.7-105-118.9-3-26.7 8-54.1 2-80.3-.5-2 .3-5 0-7.2 7-6.8 4-14.1-3.2-11.7-53 37.3-105.8 74.1-168.2 94.2-53.5 17.2-132.5 26.6-188.5 23.5-61.3-3.4-158.9-49.9-204.4-91.6-3.1-2.8-6-4.8-6-9.6Z" fill="#ffffff"></path>
        <path d="M167.8 599.6c0 4.8 2.9 6.8 6 9.6 45.5 41.7 143.1 88.2 204.4 91.6 55.9 3.1 135-6.4 188.5-23.5 62.5-20.1 115.2-56.9 168.2-94.2 7.2-2.5 10.2 4.9 3.2 11.7-86.3 84.2-134.2 138.4-261.4 153.8-86.3 10.5-231.1 16.1-312-14.7-28.5-10.8-90.6-56.4-78.4-91.8 2.2-6.4 65.4-31.5 74.5-41.1 2.4-1.5 6.2-.9 6.9-1.4Z" fill="#aba2ab"></path>
        <path d="M757.4 1151.1c-5.7 4.2-14.4 12.3-21.6 8.4 47.2-71.7 76.1-148.7 69.9-236.1-6.7-93.5-96.5-148.4-163.6-200 17.1-21.9 40.3-38.1 57.6-60 15.1-19.1 26.2-40.6 38.6-61.3 6 26.2-5.1 53.6-2 80.3 41.8 33.2 77.6 72.9 105 118.9 30.9 51.7 43.7 89.4 36.3 150.9-7.6 62.4-69.5 161.6-120 199Z" fill="#aba2ab"></path>
        <path fill="#ffffff" d="m351.4 395.1-43.7 71.3 71.9-33.3z"></path>
        <path fill="none" stroke="#000000" stroke-width="1.1" stroke-linejoin="round" d="m351.4 395.1-43.7 71.3 71.9-33.3z"></path>
        <path d="M261.7 828.9h957.4c34.2 0 61.8 27.6 61.8 61.9v200c0 34.3-27.6 61.9-61.8 61.9H261.7c-34.3 0-61.8-27.6-61.8-61.9v-200c0-34.3 27.6-61.9 61.8-61.9"></path>
        <path d="M261.7 828.9h957.4c34.2 0 61.8 27.6 61.8 61.9v200c0 34.3-27.6 61.9-61.8 61.9H261.7c-34.3 0-61.8-27.6-61.8-61.9v-200c0-34.3 27.6-61.9 61.8-61.9Z" fill="none" stroke-linejoin="round" stroke="#ffffff" stroke-width="7"></path>
        <path d="M639.9 932.4H749c17.3 0 24.4 5.8 24.4 23.8v8c0 18.9-7.1 24.7-24.4 24.7H635.5v-51c0-3.9 1.9-5.5 4.5-5.5Zm-291 0h92c25 0 35 9 35 37.6v30.8c0 35.3-6.4 46.2-35 46.2h-82.1c-33 0-44.9-5.8-44.9-37.9v-30.8c0-35 6.4-45.9 35-45.9m817.9-58.5v233.7h66.1V873.9zm-305.3 0v233.7h66.1V995.3h2.2l128.9 112.3h90.8v-2.6l-145.3-125.2 137.6-103.3v-2.6H1052l-122.2 94.7h-2.2v-94.7zm-283.2 0c-6.1 0-9 3.2-9 9.6v224h66.1V994.8h2.2l82.4 112.7h74.4v-2.6l-37.2-46.5c-5.1-6.4-10.9-12.8-16.4-18v-2.2c4.5.3 9.3.3 15.7.3h6.7c55.5 0 76.3-27.9 76.3-73.2v-16.7c0-46.2-20.8-74.8-78.9-74.8H578.1Zm-235.1 0c-69.6 0-95.3 36.3-95.3 92.8v48.1c0 56.5 25.7 92.8 95.3 92.8h103.9c69.3 0 94.9-36.3 94.9-92.8v-48.1c0-56.5-25.7-92.8-94.9-92.8z" fill="#ffffff"></path>
        <path d="M1054.5 1230.2h31.6c3.4 0 4.6 1.3 4.6 5.1v1.9c0 3.8-1.4 5.1-4.6 5.1h-31.6zm1.5-22.8h29.1c4 0 5.5 1.4 5.5 5.3v1.9c0 3.7-1.5 5.1-5.5 5.1h-30.6v-10.9c0-1 .4-1.5 1.5-1.5Zm99.4-14.3c-1.7 0-2.5.9-2.5 2.6v61.7h16.5v-48.3c0-.9.4-1.4 1.4-1.4h.9c.9 0 1.3.3 1.7 1.1l25.3 46.1c1.1 1.9 2 2.6 4.5 2.6h26.1c1.7 0 2.5-.9 2.5-2.6v-61.8h-16.5v48.4c0 .9-.5 1.4-1.4 1.4h-1c-.8 0-1.3-.4-1.7-1.1l-24.4-46.2c-.9-1.8-1.8-2.6-4.4-2.6h-27Zm-33.9 0v64.3h18.2v-64.3zm-82.6 0c-1.8 0-2.6.9-2.6 2.6v61.7h18.2v-13.2h.6l5 13.2h32.8c12.5 0 17-5.8 17-16.6v-5.7c0-5.4-2.8-9.1-6.5-11 2.6-1.9 5.2-5 5.2-10.1v-5.7c0-9.8-5-15.4-17-15.4h-52.8Zm-95.2 0v38.8c0 16 7.1 25.5 26.1 25.5h27.5c19.3 0 26.2-9.5 26.2-25.5v-38.8h-18.2v37.6c0 7.4-2.8 10.1-9.6 10.1h-24.3c-6.7 0-9.5-2.6-9.5-9.9v-37.7h-18.2Zm-80.8 0v59.4c0 3.2 1.2 4.9 4.7 4.9h66v-16.8h-50.4c-1.6 0-2.1-.7-2.1-2.1v-45.4z" fill="#ffffff"></path>
        <path d="M1229.4 1259.4h-26.1c-3.1 0-4.8-1-6.3-3.6l-25.3-46.1h-.2v47.8c0 1.1-.9 2-2 2H1153c-1.1 0-2-.9-2-2v-61.7c0-2.9 1.7-4.7 4.5-4.7h27c3.6 0 5.1 1.4 6.2 3.7l24.4 46.2h.3v-47.9c0-1.1.9-2 2-2h16.5c1.1 0 2 .9 2 2v61.8c0 2.8-1.7 4.6-4.5 4.6Zm-58.5-53.7h.9c1.6 0 2.7.7 3.5 2.2l25.2 46.1c.7 1.3 1 1.5 2.8 1.5h26.5v-60.3h-12.5v46.4c0 2-1.4 3.4-3.4 3.4h-1c-1.4 0-2.7-.7-3.4-2.1l-24.4-46.3c-.6-1.1-.7-1.5-2.6-1.5h-27.4v60.3h12.5v-46.3c0-2 1.4-3.4 3.4-3.4Zm-31.2 53.7h-18.2c-1.1 0-2-.9-2-2v-64.3c0-1.1.9-2 2-2h18.2c1.1 0 2 .9 2 2v64.3c0 1.1-.9 2-2 2m-16.2-4h14.2v-60.3h-14.2zm-30.5 4h-32.8c-.8 0-1.6-.5-1.9-1.3l-1.8-4.7v4c0 1.1-.9 2-2 2h-18.2c-1.1 0-2-.9-2-2v-61.7c0-2.9 1.7-4.7 4.6-4.7h52.8c12.6 0 19 5.8 19 17.4v5.7c0 3.9-1.3 7.2-3.9 9.8 3.3 2.6 5.2 6.6 5.2 11.2v5.7c0 12.5-6.2 18.6-19 18.6m-31.4-4h31.4c10.7 0 15-4.2 15-14.6v-5.7c0-5.6-3.4-8.2-5.4-9.2-.6-.3-1-.9-1.1-1.6 0-.7.3-1.4.8-1.8 2.9-2 4.4-4.9 4.4-8.4v-5.7c0-9.3-4.6-13.4-15-13.4h-53.3v60.3h14.2v-11.2c0-.4 0-.7.3-1-.2-.3-.3-.6-.3-1V1230c0-1.1.9-2 2-2h31.6c5.9 0 6.6 4.1 6.6 7.1v1.9c0 4.8-2.2 7.1-6.6 7.1h-28.8l4.3 11.1Zm-5.1-15.1h29.6c1.8 0 2.6-.1 2.6-3.1v-1.9c0-3-.6-3.1-2.6-3.1h-29.6zm-59.2 19.1h-27.5c-18.9 0-28.1-9-28.1-27.5v-38.8c0-1.1.9-2 2-2h18.2c1.1 0 2 .9 2 2v37.7c0 6 1.8 7.9 7.5 7.9h24.3c5.8 0 7.6-1.9 7.6-8.1V1193c0-1.1.9-2 2-2h18.2c1.1 0 2 .9 2 2v38.8c0 18.5-9.2 27.5-28.2 27.5Zm-51.6-64.3v36.8c0 16.3 7.4 23.5 24.1 23.5h27.5c16.8 0 24.2-7.3 24.2-23.5v-36.8h-14.2v35.6c0 8.4-3.6 12.1-11.6 12.1h-24.3c-8 0-11.5-3.7-11.5-11.9v-35.7h-14.2Zm-12.1 64.3h-66c-3 0-6.7-1.2-6.7-6.9v-59.4c0-1.1.9-2 2-2h18.2c1.1 0 2 .9 2 2v45.5h50.5c1.1 0 2 .9 2 2v16.8c0 1.1-.9 2-2 2m-68.7-64.3v57.4c0 2.5.8 2.9 2.7 2.9h64v-12.8h-48.4c-2.6 0-4.1-1.5-4.1-4.1v-43.4zm220.2 26.7h-30.6c-1.1 0-2-.9-2-2v-10.9c0-2.1 1.4-3.5 3.5-3.5h29.1c5.1 0 7.5 2.3 7.5 7.3v1.9c0 4.9-2.4 7.1-7.5 7.1Zm-28.6-4h28.6c3 0 3.5-.7 3.5-3.1v-1.9c0-2.6-.4-3.3-3.5-3.3h-28.6v8.4Z"></path>
    </g>
</svg>
